<?xml version="1.0" encoding="UTF-8" standalone="no"?>
<!DOCTYPE svg PUBLIC "-//W3C//DTD SVG 1.1//EN" "http://www.w3.org/Graphics/SVG/1.1/DTD/svg11.dtd">
<svg width="100%" height="100%" viewBox="0 0 255 48" version="1.1" xmlns="http://www.w3.org/2000/svg" xmlns:xlink="http://www.w3.org/1999/xlink" xml:space="preserve" xmlns:serif="http://www.serif.com/" style="fill-rule:evenodd;clip-rule:evenodd;stroke-linejoin:round;stroke-miterlimit:1.41421;">
    <g id="Canvas" transform="matrix(1,0,0,1,103.5,0)">
        <rect x="0" y="0" width="48" height="48" style="fill:none;"/>
    </g>
    <g transform="matrix(1,0,0,1,-4.91284,0.374373)">
        <g id="Text">
            <text x="58.773px" y="19.532px" style="font-family:'AdobeClean-Regular', 'Adobe Clean', sans-serif;font-size:18px;fill:rgb(44,44,44);">Adob<tspan x="97.887px " y="19.532px ">e</tspan> E<tspan x="120.513px 128.307px 137.901px 146.577px 152.427px " y="19.532px 19.532px 19.532px 19.532px 19.532px ">xperi</tspan>ence Mana<tspan x="236.433px " y="19.532px ">g</tspan>er</text>
        </g>
    </g>
    <g transform="matrix(1,0,0,1,-5.54734,22.6184)">
        <g id="Text1" serif:id="Text">
            <text x="58.773px" y="19.532px" style="font-family:'AdobeClean-Light', 'Adobe Clean', sans-serif;font-weight:300;font-size:18px;fill:rgb(44,44,44);">C<tspan x="68.493px " y="19.532px ">o</tspan>re<tspan x="91.083px 95.223px 104.943px 114.069px 128.739px 137.955px 147.081px 156.369px " y="19.532px 19.532px 19.532px 19.532px 19.532px 19.532px 19.532px 19.532px "> Compone</tspan>nt<tspan x="179.301px " y="19.532px ">s</tspan></text>
        </g>
    </g>
    <g id="Icon" transform="matrix(1,0,0,1,-53.6352,0)">
        <g id="Inner" transform="matrix(1,0,0,1,51.6352,0)">
            <path d="M24,10.944C25.568,10.946 27.005,11.839 27.7,13.244C27.326,13.466 26.981,13.735 26.675,14.044C25.965,14.754 25.002,15.153 23.998,15.153C22.994,15.153 22.031,14.754 21.321,14.044C21.014,13.736 20.669,13.467 20.295,13.244C20.99,11.837 22.43,10.943 24,10.944ZM28.1,14.614C28.117,14.765 28.125,14.917 28.124,15.069C28.128,17.705 30.296,19.872 32.932,19.875C33.084,19.875 33.235,19.883 33.386,19.9C33.267,20.064 33.136,20.218 32.993,20.361C32.028,21.325 31.485,22.635 31.485,24C31.485,25.364 32.028,26.674 32.993,27.638C33.136,27.782 33.267,27.936 33.386,28.1C33.235,28.117 33.084,28.125 32.932,28.125C30.296,28.128 28.128,30.295 28.125,32.931C28.126,33.083 28.118,33.235 28.101,33.386C27.937,33.267 27.782,33.135 27.638,32.992C25.642,30.996 22.356,30.996 20.36,32.992C20.216,33.135 20.061,33.267 19.897,33.386C19.88,33.235 19.872,33.083 19.873,32.931C19.869,30.295 17.701,28.128 15.065,28.125C14.914,28.125 14.762,28.117 14.612,28.1C14.73,27.936 14.862,27.782 15.005,27.639C15.97,26.674 16.513,25.364 16.513,24C16.513,22.636 15.97,21.326 15.005,20.361C14.862,20.218 14.73,20.064 14.611,19.9C14.762,19.883 14.913,19.875 15.065,19.875C17.701,19.872 19.869,17.705 19.873,15.069C19.872,14.917 19.88,14.765 19.897,14.614C20.061,14.733 20.216,14.865 20.36,15.008C21.324,15.974 22.634,16.517 23.999,16.517C25.364,16.517 26.674,15.974 27.638,15.008C27.782,14.865 27.936,14.733 28.1,14.614ZM34.754,20.3C36.161,20.993 37.057,22.431 37.057,24C37.057,25.569 36.161,27.007 34.754,27.7C34.531,27.326 34.263,26.982 33.954,26.675C32.486,25.207 32.486,22.791 33.954,21.323C34.262,21.017 34.531,20.673 34.754,20.3ZM27.7,34.752C27.006,36.16 25.567,37.056 23.997,37.056C22.427,37.056 20.988,36.16 20.294,34.752C20.668,34.529 21.013,34.26 21.32,33.952C22.789,32.485 25.205,32.485 26.674,33.952C26.981,34.26 27.326,34.529 27.7,34.752ZM13.246,27.7C11.839,27.007 10.943,25.569 10.943,24C10.943,22.431 11.839,20.993 13.246,20.3C13.469,20.674 13.738,21.018 14.046,21.325C14.756,22.034 15.155,22.998 15.155,24.001C15.155,25.004 14.756,25.968 14.046,26.677C13.738,26.984 13.47,27.327 13.246,27.7ZM24,37.737C25.826,37.735 27.501,36.695 28.311,35.058C28.944,35.325 29.625,35.462 30.312,35.462C33.139,35.462 35.465,33.136 35.465,30.309C35.465,29.622 35.328,28.942 35.061,28.309C36.702,27.504 37.746,25.828 37.746,24C37.746,22.172 36.702,20.496 35.061,19.691C35.327,19.059 35.464,18.379 35.464,17.693C35.464,14.865 33.137,12.538 30.309,12.538C29.622,12.538 28.942,12.676 28.309,12.942C27.508,11.295 25.831,10.245 23.999,10.245C22.167,10.245 20.49,11.295 19.689,12.942C19.056,12.676 18.376,12.539 17.69,12.539C14.862,12.539 12.535,14.866 12.535,17.694C12.535,18.38 12.672,19.059 12.938,19.692C11.298,20.498 10.254,22.173 10.254,24.001C10.254,25.828 11.298,27.503 12.938,28.309C12.671,28.942 12.534,29.622 12.534,30.309C12.534,33.136 14.86,35.462 17.687,35.462C18.374,35.462 19.055,35.325 19.688,35.058C20.498,36.695 22.173,37.736 24,37.737ZM28.737,33.757C28.784,33.484 28.808,33.208 28.807,32.931C28.81,30.669 30.671,28.808 32.933,28.806C33.21,28.806 33.486,28.783 33.759,28.736C33.985,29.23 34.102,29.768 34.102,30.311C34.102,32.39 32.392,34.1 30.313,34.1C29.769,34.1 29.232,33.983 28.737,33.757ZM33.759,19.264C33.486,19.217 33.21,19.194 32.933,19.194C30.671,19.192 28.81,17.331 28.807,15.069C28.807,14.792 28.783,14.516 28.736,14.243C29.231,14.016 29.769,13.899 30.313,13.899C32.392,13.899 34.102,15.61 34.102,17.688C34.102,18.232 33.985,18.769 33.759,19.264ZM19.259,14.243C19.212,14.516 19.188,14.792 19.189,15.069C19.186,17.331 17.324,19.192 15.062,19.194C14.786,19.194 14.51,19.217 14.237,19.264C14.011,18.77 13.894,18.232 13.894,17.689C13.894,15.61 15.604,13.9 17.683,13.9C18.227,13.9 18.764,14.017 19.259,14.243ZM14.241,28.736C14.514,28.782 14.79,28.806 15.066,28.806C17.328,28.808 19.19,30.669 19.193,32.931C19.192,33.208 19.216,33.484 19.263,33.757C18.768,33.984 18.23,34.101 17.685,34.101C15.607,34.101 13.897,32.391 13.897,30.313C13.897,29.769 14.014,29.231 14.241,28.736Z" style="fill:rgb(44,44,44);fill-rule:nonzero;"/>
        </g>
        <g id="Outer" transform="matrix(1,0,0,1,51.6352,0)">
            <path d="M2,24C2,36.069 11.931,46 24,46C36.069,46 46,36.069 46,24C46,11.931 36.069,2 24,2C11.931,2 2,11.931 2,24ZM4.268,24C4.281,13.184 13.184,4.291 24,4.291C34.825,4.291 43.732,13.198 43.732,24.023C43.732,34.848 34.825,43.755 24,43.755C13.173,43.749 4.268,34.839 4.268,24.012C4.268,24.008 4.268,24.004 4.268,24Z" style="fill:rgb(44,44,44);fill-rule:nonzero;"/>
        </g>
    </g>
</svg>
