<?xml version="1.0" standalone="no"?>
<!DOCTYPE svg PUBLIC "-//W3C//DTD SVG 20010904//EN"
 "http://www.w3.org/TR/2001/REC-SVG-20010904/DTD/svg10.dtd">
<svg version="1.0" xmlns="http://www.w3.org/2000/svg"
 width="105.000000pt" height="105.000000pt" viewBox="0 0 105.000000 105.000000"
 preserveAspectRatio="xMidYMid meet">
<metadata>
Created by potrace 1.11, written by Peter Selinger 2001-2013
</metadata>
<g transform="translate(0.000000,105.000000) scale(0.100000,-0.100000)"
fill="#000000" stroke="none">
<path d="M0 525 l0 -525 525 0 525 0 0 525 0 525 -525 0 -525 0 0 -525z m629
464 c117 -27 259 -138 310 -242 68 -140 68 -294 0 -434 -31 -62 -140 -171
-202 -202 -140 -68 -294 -68 -434 0 -104 51 -215 193 -242 310 -13 56 -13 162
0 218 37 161 187 313 346 350 52 12 169 13 222 0z"/>
<path d="M413 945 c-81 -22 -132 -52 -193 -114 -249 -249 -114 -664 236 -724
277 -48 535 210 487 487 -43 254 -288 416 -530 351z m165 -125 c17 -11 32 -24
32 -30 0 -6 15 -8 38 -5 69 11 144 -66 128 -131 -4 -16 1 -30 19 -48 44 -44
45 -107 2 -150 -16 -16 -22 -34 -22 -62 0 -23 -9 -53 -19 -68 -21 -33 -80 -60
-112 -52 -16 4 -30 -1 -48 -19 -45 -45 -107 -45 -152 0 -18 18 -32 23 -48 19
-32 -8 -91 19 -112 52 -10 15 -19 45 -19 68 0 28 -6 46 -22 62 -43 43 -42 106
2 150 19 19 23 31 19 53 -13 65 59 137 129 126 22 -3 37 -1 37 5 0 16 62 50
90 50 14 0 40 -9 58 -20z"/>
<path d="M465 798 l-28 -22 27 -23 c34 -29 75 -29 111 -1 l28 22 -27 23 c-34
29 -75 29 -111 1z"/>
<path d="M322 730 c-14 -14 -22 -33 -22 -55 0 -31 3 -35 26 -35 15 0 38 12 55
29 17 17 29 40 29 55 0 23 -4 26 -33 26 -20 0 -42 -8 -55 -20z"/>
<path d="M630 724 c0 -33 50 -84 83 -84 30 0 38 22 24 63 -11 32 -34 47 -76
47 -27 0 -31 -4 -31 -26z"/>
<path d="M418 689 c-12 -29 -27 -44 -56 -57 -38 -17 -39 -19 -26 -42 7 -14 13
-41 13 -60 0 -19 -6 -46 -13 -60 -13 -23 -12 -25 25 -42 29 -12 45 -28 57 -57
17 -37 19 -38 42 -25 32 17 88 17 120 0 23 -13 25 -12 42 25 12 29 28 45 57
57 37 17 38 19 25 42 -7 14 -13 41 -13 60 0 19 6 46 13 60 13 23 12 25 -25 42
-29 12 -45 28 -57 57 -17 37 -19 38 -42 25 -32 -17 -84 -18 -118 0 -27 14 -28
13 -44 -25z"/>
<path d="M252 585 c-28 -36 -28 -77 1 -111 l23 -27 22 28 c28 36 28 77 -1 111
l-23 27 -22 -28z"/>
<path d="M742 585 c-28 -36 -28 -77 1 -111 l23 -27 22 28 c28 36 28 77 -1 111
l-23 27 -22 -28z"/>
<path d="M298 403 c-6 -27 12 -72 32 -83 10 -6 32 -10 49 -10 27 0 31 4 31 26
0 54 -102 115 -112 67z"/>
<path d="M659 391 c-17 -17 -29 -40 -29 -55 0 -22 4 -26 31 -26 17 0 39 4 49
10 21 11 42 64 34 85 -10 25 -53 17 -85 -14z"/>
<path d="M465 308 l-28 -22 27 -23 c34 -29 75 -29 111 -1 l28 22 -27 23 c-34
29 -75 29 -111 1z"/>
</g>
</svg>
